<svg width="245" height="77" viewBox="0 0 245 77" fill="none" xmlns="http://www.w3.org/2000/svg">
<path d="M52.5534 0.5C46.0082 0.500722 39.7314 3.1011 35.1033 7.72923C30.4751 12.3574 27.8747 18.6342 27.874 25.1794V27.6073H50.1255V49.8588H52.5534C59.0971 49.8566 65.372 47.2554 69.9981 42.6273C74.6242 37.9992 77.2226 31.7231 77.2219 25.1794C77.2219 18.6359 74.6233 12.3603 69.9973 7.73228C65.3714 3.10431 59.0969 0.502887 52.5534 0.5Z" fill="#FA777C"/>
<path d="M27.8769 27.6106H25.4489C18.9036 27.6106 12.6262 30.2107 7.99796 34.839C3.36968 39.4673 0.769531 45.7446 0.769531 52.29C0.771697 58.8337 3.37288 65.1086 8.00101 69.7347C12.6291 74.3608 18.9052 76.9592 25.4489 76.9585C31.9943 76.9585 38.2716 74.3583 42.8999 69.7301C47.5282 65.1018 50.1283 58.8245 50.1283 52.2791V49.8512H27.8769V27.6106Z" fill="#6261B5"/>
<path d="M50.1255 27.6106H27.874V49.8621H50.1255V27.6106Z" fill="#654389"/>
<path d="M120.856 34.3498C119.011 32.5183 116.82 31.073 114.411 30.0982C109.376 28.0695 103.751 28.0695 98.7162 30.0982C96.3322 31.0742 94.1696 32.5211 92.3579 34.3525C90.5531 36.2025 89.1135 38.3762 88.1144 40.7598C87.0571 43.2798 86.5237 45.9886 86.5466 48.7214C86.5557 52.0291 87.3811 55.2835 88.9496 58.1957C90.5181 61.1079 92.7813 63.5879 95.5382 65.4156C98.2952 67.2433 101.461 68.3623 104.754 68.6731C108.047 68.984 111.366 68.4771 114.416 67.1976C119.259 65.2136 123.13 61.4076 125.195 56.5985C126.274 54.1136 126.823 51.4306 126.806 48.7214C126.829 45.9825 126.28 43.2691 125.195 40.7544C124.16 38.3679 122.689 36.1958 120.856 34.3498ZM106.588 62.5867C104.728 62.6002 102.885 62.2238 101.179 61.4816C99.5425 60.7654 98.0535 59.75 96.7891 58.4875C95.5296 57.2195 94.5325 55.7155 93.8549 54.0617C92.4377 50.6104 92.4377 46.7397 93.8549 43.2885C94.5494 41.6401 95.5475 40.1369 96.7973 38.8572C98.0521 37.5821 99.5396 36.5592 101.179 35.8441C102.884 35.1033 104.724 34.7269 106.582 34.739C108.454 34.73 110.307 35.1072 112.026 35.8468C113.685 36.5562 115.189 37.5824 116.455 38.8681C117.711 40.1556 118.725 41.6584 119.449 43.3048C120.179 45.0049 120.555 46.8358 120.555 48.686C120.555 50.5362 120.179 52.367 119.449 54.0672C118.04 57.4102 115.38 60.0701 112.037 61.4789C110.316 62.2198 108.461 62.5969 106.588 62.5867Z" fill="#62617E"/>
<path d="M172.549 28.5707C171.467 28.5906 170.394 28.7741 169.367 29.115C168.21 29.4857 167.099 29.9832 166.052 30.5985C164.965 31.24 163.96 32.0105 163.057 32.893C162.342 33.584 161.72 34.3655 161.207 35.2175C160.084 33.1351 158.371 31.4307 156.283 30.3181C154.051 29.1531 151.383 28.5625 148.367 28.5625C144.309 28.5625 141.252 30.0976 139.26 33.1271V33.0019C139.26 30.9578 138.171 29.8772 136.089 29.8772C134.075 29.8772 133.008 30.9659 133.008 33.0019V65.1801C133.008 66.4458 133.552 67.9537 136.179 67.9537C138.727 67.9537 139.26 66.4458 139.26 65.1801V43.8813C139.252 42.6421 139.492 41.4138 139.968 40.2693C140.417 39.1908 141.069 38.2085 141.889 37.376C142.716 36.5527 143.694 35.8973 144.769 35.4462C145.906 34.9687 147.129 34.7262 148.362 34.733C149.566 34.7321 150.757 34.9747 151.865 35.4462C152.928 35.8912 153.891 36.5457 154.696 37.3705C155.495 38.2139 156.134 39.1963 156.579 40.2693C157.055 41.4136 157.296 42.642 157.287 43.8813V65.1801C157.287 66.4458 157.831 67.9537 160.415 67.9537C162.998 67.9537 163.539 66.4458 163.539 65.1801V43.8813C163.536 42.6711 163.779 41.4728 164.252 40.3592C164.713 39.2604 165.383 38.262 166.226 37.4195C167.059 36.5857 168.041 35.9162 169.122 35.4462C170.219 34.9704 171.402 34.7275 172.598 34.733C175 34.7386 177.304 35.6877 179.013 37.376C179.86 38.2333 180.529 39.2491 180.983 40.3654C181.436 41.4817 181.665 42.6764 181.656 43.8813V65.1801C181.656 66.4458 182.176 67.9537 184.65 67.9537C187.34 67.9537 187.903 66.4458 187.903 65.1801V45.2831C187.903 39.8801 186.498 35.6993 183.725 32.8576C180.951 30.016 177.181 28.5707 172.549 28.5707Z" fill="#62617E"/>
<path d="M212.327 28.567C209.723 28.5241 207.16 29.2308 204.946 30.603C203.353 31.5925 202.015 32.9438 201.042 34.547V33.0064C201.042 30.9623 199.932 29.8817 197.831 29.8817C195.844 29.8817 194.793 30.9705 194.793 33.0064V64.9996C194.793 66.9294 195.844 67.9501 197.831 67.9501C200.487 67.9501 201.042 66.3469 201.042 64.9996V46.0688C201.039 44.5759 201.326 43.0967 201.889 41.7138C202.429 40.3707 203.233 39.1498 204.254 38.1236C205.287 37.1016 206.493 36.272 207.817 35.6739C209.224 35.0452 210.751 34.7286 212.292 34.7457C213.793 34.7421 215.278 35.0585 216.647 35.6739C217.999 36.2754 219.235 37.1091 220.3 38.1372C221.352 39.1691 222.2 40.391 222.798 41.7383C223.414 43.1075 223.73 44.5922 223.727 46.0933V64.9369C223.727 66.9239 224.791 67.9746 226.805 67.9746C228.879 67.9746 229.976 66.9239 229.976 64.9369V47.5549C229.976 41.6348 228.387 36.9396 225.251 33.6025C222.115 30.2655 217.755 28.567 212.327 28.567Z" fill="#62617E"/>
<path d="M239.815 29.8867C237.828 29.8867 236.777 30.9972 236.777 33.1013V65.0046C236.777 66.9344 237.866 67.9551 239.902 67.9551C241.938 67.9551 243.027 66.9344 243.027 65.0046V33.1013C243.027 30.9972 241.916 29.8867 239.815 29.8867Z" fill="#62617E"/>
<path d="M240.087 22.727C241.063 22.7027 241.997 22.3256 242.716 21.6654C243.568 20.9441 244.001 19.9261 244.001 18.6359C244.014 18.0896 243.907 17.547 243.686 17.0472C243.464 16.5474 243.135 16.1028 242.722 15.7453C242.013 15.0593 241.073 14.6631 240.087 14.6348C238.865 14.6348 237.882 15.0158 237.161 15.7698C236.8 16.1522 236.517 16.6022 236.33 17.0941C236.144 17.586 236.056 18.11 236.072 18.6359C236.072 19.9125 236.437 20.9251 237.161 21.63C237.885 22.335 238.868 22.727 240.087 22.727Z" fill="#62617E"/>
</svg>
